<?xml version="1.0" encoding="UTF-8"?>
<svg xmlns="http://www.w3.org/2000/svg" xmlns:xlink="http://www.w3.org/1999/xlink" viewBox="0 0 48 48" width="48px" height="48px">
<g id="surface5421991">
<path style=" stroke:none;fill-rule:nonzero;fill:rgb(45.882353%,6.27451%,96.862745%);fill-opacity:1;" d="M 12 22 L 11 22 L 11 21.5 C 11 21.21875 11.21875 21 11.5 21 C 11.78125 21 12 21.21875 12 21.5 Z M 12 22 "/>
<path style=" stroke:none;fill-rule:nonzero;fill:rgb(45.882353%,6.27451%,96.862745%);fill-opacity:1;" d="M 22.25 21 C 22.160156 21 22.078125 21.019531 22 21.050781 C 21.710938 21.148438 21.5 21.429688 21.5 21.75 L 21.5 23.75 C 21.5 24.070312 21.710938 24.351562 22 24.449219 C 22.078125 24.480469 22.160156 24.5 22.25 24.5 C 22.660156 24.5 23 24.160156 23 23.75 L 23 21.75 C 23 21.339844 22.660156 21 22.25 21 Z M 22.25 21 C 22.160156 21 22.078125 21.019531 22 21.050781 C 21.710938 21.148438 21.5 21.429688 21.5 21.75 L 21.5 23.75 C 21.5 24.070312 21.710938 24.351562 22 24.449219 C 22.078125 24.480469 22.160156 24.5 22.25 24.5 C 22.660156 24.5 23 24.160156 23 23.75 L 23 21.75 C 23 21.339844 22.660156 21 22.25 21 Z M 22.25 21 C 22.160156 21 22.078125 21.019531 22 21.050781 C 21.710938 21.148438 21.5 21.429688 21.5 21.75 L 21.5 23.75 C 21.5 24.070312 21.710938 24.351562 22 24.449219 C 22.078125 24.480469 22.160156 24.5 22.25 24.5 C 22.660156 24.5 23 24.160156 23 23.75 L 23 21.75 C 23 21.339844 22.660156 21 22.25 21 Z M 29.5 21 C 29.21875 21 29 21.21875 29 21.5 L 29 22 L 30 22 L 30 21.5 C 30 21.21875 29.78125 21 29.5 21 Z M 29.5 21 C 29.21875 21 29 21.21875 29 21.5 L 29 22 L 30 22 L 30 21.5 C 30 21.21875 29.78125 21 29.5 21 Z M 22.25 21 C 22.160156 21 22.078125 21.019531 22 21.050781 C 21.710938 21.148438 21.5 21.429688 21.5 21.75 L 21.5 23.75 C 21.5 24.070312 21.710938 24.351562 22 24.449219 C 22.078125 24.480469 22.160156 24.5 22.25 24.5 C 22.660156 24.5 23 24.160156 23 23.75 L 23 21.75 C 23 21.339844 22.660156 21 22.25 21 Z M 38 6 L 10 6 C 7.789062 6 6 7.789062 6 10 L 6 38 C 6 40.210938 7.789062 42 10 42 L 38 42 C 40.210938 42 42 40.210938 42 38 L 42 10 C 42 7.789062 40.210938 6 38 6 Z M 10 21.5 C 10 20.671875 10.671875 20 11.5 20 C 12.328125 20 13 20.671875 13 21.5 L 13 23 L 11 23 L 11 24 C 11 24.28125 11.21875 24.5 11.5 24.5 C 11.78125 24.5 12 24.28125 12 24 L 13 24 C 13 24.828125 12.328125 25.5 11.5 25.5 C 10.671875 25.5 10 24.828125 10 24 Z M 24 23.878906 C 24 24.769531 23.269531 25.5 22.378906 25.5 L 22.371094 25.5 C 22.238281 25.5 22.121094 25.488281 22 25.460938 C 21.820312 25.421875 21.648438 25.339844 21.5 25.238281 L 21.5 27.5 L 20.5 27.5 L 20.5 20 L 21.5 20 L 21.5 20.261719 C 21.648438 20.160156 21.820312 20.078125 22 20.039062 C 22.121094 20.011719 22.238281 20 22.371094 20 L 22.378906 20 C 23.269531 20 24 20.730469 24 21.621094 Z M 17.929688 21.328125 C 19.570312 26.179688 21.261719 32.691406 21 38.5 L 19.5 38 C 19.5 38 18.871094 33 16.140625 23.480469 C 14.351562 25.730469 12.539062 28.429688 11 31.5 L 10 31.5 C 10 31.5 10.550781 28.46875 15.761719 22.191406 C 15.121094 20.011719 14.371094 17.609375 13.5 15 L 15 14 C 15 14 16.191406 16.46875 17.511719 20.148438 C 19.019531 18.460938 20.828125 16.578125 23 14.5 L 24 15.5 C 24 15.5 21.230469 17.578125 17.929688 21.328125 Z M 27.5 21.03125 C 27.421875 21.011719 27.339844 21 27.25 21 C 26.648438 21 26.109375 21.429688 26 22 L 26 25.5 L 25 25.5 L 25 20 L 26 20 L 26 20.699219 C 26.03125 20.660156 26.058594 20.621094 26.089844 20.589844 C 26.449219 20.21875 26.949219 20 27.5 20 Z M 31 23 L 29 23 L 29 24 C 29 24.28125 29.21875 24.5 29.5 24.5 C 29.78125 24.5 30 24.28125 30 24 L 31 24 C 31 24.828125 30.328125 25.5 29.5 25.5 C 28.671875 25.5 28 24.828125 28 24 L 28 21.5 C 28 20.671875 28.671875 20 29.5 20 C 30.328125 20 31 20.671875 31 21.5 Z M 34.601562 24.511719 C 34.519531 24.699219 34.410156 24.871094 34.269531 25.019531 C 34.121094 25.171875 33.949219 25.289062 33.761719 25.371094 C 33.558594 25.460938 33.339844 25.5 33.109375 25.5 C 32.671875 25.5 32.308594 25.359375 32.011719 25.089844 C 31.859375 24.949219 31.738281 24.78125 31.648438 24.578125 C 31.558594 24.378906 31.511719 24.148438 31.5 23.878906 L 32.519531 23.878906 C 32.539062 24.03125 32.589844 24.160156 32.671875 24.289062 C 32.75 24.421875 32.898438 24.480469 33.101562 24.480469 C 33.261719 24.480469 33.390625 24.429688 33.519531 24.328125 C 33.640625 24.230469 33.699219 24.078125 33.699219 23.898438 C 33.699219 23.75 33.671875 23.621094 33.589844 23.519531 C 33.511719 23.410156 33.371094 23.320312 33.160156 23.238281 L 32.640625 23.050781 C 32.308594 22.921875 32.039062 22.738281 31.839844 22.480469 C 31.648438 22.230469 31.550781 21.929688 31.550781 21.570312 C 31.550781 21.339844 31.601562 21.128906 31.679688 20.941406 C 31.761719 20.738281 31.878906 20.578125 32.03125 20.429688 C 32.171875 20.289062 32.339844 20.191406 32.53125 20.109375 C 32.71875 20.039062 32.921875 20 33.140625 20 C 33.359375 20 33.558594 20.039062 33.75 20.121094 C 33.941406 20.191406 34.101562 20.300781 34.230469 20.449219 C 34.371094 20.589844 34.46875 20.75 34.550781 20.949219 C 34.628906 21.140625 34.671875 21.351562 34.671875 21.570312 L 33.648438 21.570312 C 33.640625 21.378906 33.589844 21.25 33.480469 21.148438 C 33.371094 21.058594 33.238281 21.019531 33.101562 21.019531 C 32.929688 21.019531 32.800781 21.070312 32.710938 21.179688 C 32.621094 21.289062 32.570312 21.421875 32.570312 21.558594 C 32.570312 21.660156 32.589844 21.75 32.640625 21.851562 C 32.691406 21.941406 32.820312 22.03125 33.03125 22.109375 L 33.660156 22.359375 C 34.058594 22.519531 34.339844 22.730469 34.488281 23 C 34.648438 23.269531 34.71875 23.558594 34.71875 23.878906 C 34.71875 24.101562 34.679688 24.320312 34.601562 24.511719 Z M 38.378906 24.511719 C 38.300781 24.699219 38.191406 24.871094 38.039062 25.019531 C 37.898438 25.171875 37.730469 25.289062 37.539062 25.371094 C 37.339844 25.460938 37.121094 25.5 36.890625 25.5 C 36.449219 25.5 36.078125 25.359375 35.789062 25.089844 C 35.640625 24.949219 35.519531 24.78125 35.429688 24.578125 C 35.328125 24.378906 35.28125 24.148438 35.28125 23.878906 L 36.300781 23.878906 C 36.320312 24.03125 36.371094 24.160156 36.449219 24.289062 C 36.53125 24.421875 36.671875 24.480469 36.878906 24.480469 C 37.03125 24.480469 37.171875 24.429688 37.300781 24.328125 C 37.421875 24.230469 37.480469 24.078125 37.480469 23.898438 C 37.480469 23.75 37.441406 23.621094 37.371094 23.519531 C 37.289062 23.410156 37.148438 23.320312 36.941406 23.238281 L 36.421875 23.050781 C 36.078125 22.921875 35.820312 22.738281 35.621094 22.480469 C 35.429688 22.230469 35.328125 21.929688 35.328125 21.570312 C 35.328125 21.339844 35.371094 21.128906 35.460938 20.941406 C 35.539062 20.738281 35.660156 20.578125 35.808594 20.429688 C 35.949219 20.289062 36.121094 20.191406 36.308594 20.109375 C 36.5 20.039062 36.699219 20 36.921875 20 C 37.140625 20 37.339844 20.039062 37.53125 20.121094 C 37.71875 20.191406 37.878906 20.300781 38.011719 20.449219 C 38.148438 20.589844 38.25 20.75 38.328125 20.949219 C 38.410156 21.140625 38.449219 21.351562 38.449219 21.570312 L 37.429688 21.570312 C 37.421875 21.378906 37.359375 21.25 37.261719 21.148438 C 37.148438 21.058594 37.019531 21.019531 36.878906 21.019531 C 36.710938 21.019531 36.578125 21.070312 36.488281 21.179688 C 36.390625 21.289062 36.351562 21.421875 36.351562 21.558594 C 36.351562 21.660156 36.371094 21.75 36.421875 21.851562 C 36.46875 21.941406 36.601562 22.03125 36.800781 22.109375 L 37.441406 22.359375 C 37.839844 22.519531 38.121094 22.730469 38.269531 23 C 38.421875 23.269531 38.5 23.558594 38.5 23.878906 C 38.5 24.101562 38.460938 24.320312 38.378906 24.511719 Z M 29.5 21 C 29.21875 21 29 21.21875 29 21.5 L 29 22 L 30 22 L 30 21.5 C 30 21.21875 29.78125 21 29.5 21 Z M 22.25 21 C 22.160156 21 22.078125 21.019531 22 21.050781 C 21.710938 21.148438 21.5 21.429688 21.5 21.75 L 21.5 23.75 C 21.5 24.070312 21.710938 24.351562 22 24.449219 C 22.078125 24.480469 22.160156 24.5 22.25 24.5 C 22.660156 24.5 23 24.160156 23 23.75 L 23 21.75 C 23 21.339844 22.660156 21 22.25 21 Z M 22.25 21 C 22.160156 21 22.078125 21.019531 22 21.050781 C 21.710938 21.148438 21.5 21.429688 21.5 21.75 L 21.5 23.75 C 21.5 24.070312 21.710938 24.351562 22 24.449219 C 22.078125 24.480469 22.160156 24.5 22.25 24.5 C 22.660156 24.5 23 24.160156 23 23.75 L 23 21.75 C 23 21.339844 22.660156 21 22.25 21 Z M 29.5 21 C 29.21875 21 29 21.21875 29 21.5 L 29 22 L 30 22 L 30 21.5 C 30 21.21875 29.78125 21 29.5 21 Z M 29.5 21 C 29.21875 21 29 21.21875 29 21.5 L 29 22 L 30 22 L 30 21.5 C 30 21.21875 29.78125 21 29.5 21 Z M 22.25 21 C 22.160156 21 22.078125 21.019531 22 21.050781 C 21.710938 21.148438 21.5 21.429688 21.5 21.75 L 21.5 23.75 C 21.5 24.070312 21.710938 24.351562 22 24.449219 C 22.078125 24.480469 22.160156 24.5 22.25 24.5 C 22.660156 24.5 23 24.160156 23 23.75 L 23 21.75 C 23 21.339844 22.660156 21 22.25 21 Z M 22.25 21 C 22.160156 21 22.078125 21.019531 22 21.050781 C 21.710938 21.148438 21.5 21.429688 21.5 21.75 L 21.5 23.75 C 21.5 24.070312 21.710938 24.351562 22 24.449219 C 22.078125 24.480469 22.160156 24.5 22.25 24.5 C 22.660156 24.5 23 24.160156 23 23.75 L 23 21.75 C 23 21.339844 22.660156 21 22.25 21 Z M 22.25 21 C 22.160156 21 22.078125 21.019531 22 21.050781 C 21.710938 21.148438 21.5 21.429688 21.5 21.75 L 21.5 23.75 C 21.5 24.070312 21.710938 24.351562 22 24.449219 C 22.078125 24.480469 22.160156 24.5 22.25 24.5 C 22.660156 24.5 23 24.160156 23 23.75 L 23 21.75 C 23 21.339844 22.660156 21 22.25 21 Z M 22.25 21 "/>
</g>
</svg>
