<?xml version="1.0" encoding="UTF-8" standalone="no"?>
<!-- Created with Inkscape (http://www.inkscape.org/) -->

<svg
   width="59.53125mm"
   height="59.53125mm"
   viewBox="0 0 59.53125 59.53125"
   version="1.1"
   id="svg5"
   inkscape:version="1.1 (c4e8f9ed74, 2021-05-24)"
   sodipodi:docname="GATSBY.svg"
   xmlns:inkscape="http://www.inkscape.org/namespaces/inkscape"
   xmlns:sodipodi="http://sodipodi.sourceforge.net/DTD/sodipodi-0.dtd"
   xmlns="http://www.w3.org/2000/svg"
   xmlns:svg="http://www.w3.org/2000/svg">
  <sodipodi:namedview
     id="namedview7"
     pagecolor="#ffffff"
     bordercolor="#666666"
     borderopacity="1.0"
     inkscape:pageshadow="2"
     inkscape:pageopacity="0.0"
     inkscape:pagecheckerboard="0"
     inkscape:document-units="mm"
     showgrid="false"
     inkscape:zoom="0.25255682"
     inkscape:cx="441.48481"
     inkscape:cy="69.291339"
     inkscape:window-width="1366"
     inkscape:window-height="742"
     inkscape:window-x="0"
     inkscape:window-y="0"
     inkscape:window-maximized="1"
     inkscape:current-layer="layer1" />
  <defs
     id="defs2" />
  <g
     inkscape:label="Layer 1"
     inkscape:groupmode="layer"
     id="layer1"
     transform="translate(-4.8968573,-2.0818605)">
    <path
       style="fill:#ffffff;stroke-width:0.264583"
       d="M 31.060276,62.037898 C 17.807156,60.709668 7.1721264,51.022908 4.7126564,38.039538 c -0.5743104,-3.03176 -0.5743104,-7.98124 0,-11.01301 2.01705,-10.64788 9.6353896,-19.2956798 19.9589996,-22.6560699 3.11322,-1.0133599 5.71192,-1.4143099 9.16675,-1.4143099 6.53897,0 12.584274,1.9872199 17.73442,5.8297 7.560776,5.6410198 11.832984,14.2147598 11.832984,23.7471898 0,12.73435 -7.762446,23.69831 -19.827568,28.00519 -3.550426,1.26739 -8.690846,1.88322 -12.517966,1.49967 z m -0.26599,-9.08493 c -1.67271,-1.64763 -6.9568,-6.85661 -11.74241,-11.57552 l -8.70111,-8.57983 0.16067,2.11667 c 0.65585,8.64032 7.01021,16.80672 15.24543,19.5929 2.46813,0.83502 5.12471,1.39325 6.75721,1.4199 l 1.32151,0.0216 z m 9.96156,1.90699 c 6.603205,-2.03701 12.41609,-7.46495 14.984887,-13.99255 0.826702,-2.10074 1.513295,-5.33685 1.513295,-7.13259 v -1.33407 h -7.540625 -7.540625 v 2.24336 2.24337 l 5.138584,0.0717 5.138584,0.0717 -0.647051,1.84976 c -0.98357,2.81177 -2.122943,4.53308 -4.735259,7.15378 -1.841283,1.8472 -2.835807,2.61222 -4.385426,3.37344 -1.102264,0.54146 -2.114774,0.98447 -2.250034,0.98447 -0.13526,0 -5.71015,-5.46519 -12.38865,-12.14487 l -12.14273,-12.14488 0.46002,-1.15044 c 1.36577,-3.4156 5.042,-7.34575 8.60516,-9.19951 2.88626,-1.5016 5.52544,-2.13738 8.87243,-2.13738 5.35935,0 9.526545,1.73017 13.469443,5.59235 l 2.356948,2.3087 1.545656,-1.34437 c 0.850114,-0.73941 1.545659,-1.42181 1.545659,-1.51646 0,-0.37744 -2.749534,-3.22509 -4.322451,-4.4767 -6.573225,-5.2304698 -15.570365,-6.5203098 -23.381455,-3.35198 -6.37716,2.5867 -11.5071,8.19661 -13.54954,14.81726 l -0.56835,1.84234 13.96465,13.96651 c 7.68056,7.68158 13.98229,13.96652 14.00386,13.96652 0.0216,0 0.85543,-0.2518 1.85302,-0.55954 z"
       id="path836" />
  </g>
</svg>
