<?xml version="1.0" encoding="UTF-8" standalone="no"?>
<!-- Created with Inkscape (http://www.inkscape.org/) -->

<svg
   width="31.662514mm"
   height="29.333391mm"
   viewBox="0 0 31.662514 29.333391"
   version="1.1"
   id="svg5"
   inkscape:version="1.1 (c4e8f9ed74, 2021-05-24)"
   sodipodi:docname="MKDOCS.svg"
   xmlns:inkscape="http://www.inkscape.org/namespaces/inkscape"
   xmlns:sodipodi="http://sodipodi.sourceforge.net/DTD/sodipodi-0.dtd"
   xmlns="http://www.w3.org/2000/svg"
   xmlns:svg="http://www.w3.org/2000/svg">
  <sodipodi:namedview
     id="namedview7"
     pagecolor="#ffffff"
     bordercolor="#666666"
     borderopacity="1.0"
     inkscape:pageshadow="2"
     inkscape:pageopacity="0.0"
     inkscape:pagecheckerboard="0"
     inkscape:document-units="mm"
     showgrid="false"
     inkscape:zoom="1.0102273"
     inkscape:cx="183.62205"
     inkscape:cy="208.36895"
     inkscape:window-width="1366"
     inkscape:window-height="742"
     inkscape:window-x="0"
     inkscape:window-y="0"
     inkscape:window-maximized="1"
     inkscape:current-layer="layer1" />
  <defs
     id="defs2">
    <clipPath
       clipPathUnits="userSpaceOnUse"
       id="clipPath871">
      <path
         style="fill:none;stroke:#000000;stroke-width:0.264583px;stroke-linecap:butt;stroke-linejoin:miter;stroke-opacity:1"
         d="m 17.530515,15.363598 53.477166,-0.915859 0.49761,39.115579 -54.67747,1.011555 z"
         id="path873" />
    </clipPath>
  </defs>
  <g
     inkscape:label="Layer 1"
     inkscape:groupmode="layer"
     id="layer1"
     transform="translate(-2.5762457,-0.7905948)">
    <path
       style="fill:#6E14F0;stroke-width:0.26731"
       d="m 3.4450529,29.75876 c -0.07835,-0.208402 -0.107754,-1.461695 -0.06535,-2.785091 0.09496,-2.963394 0.514271,-3.271025 1.840591,-1.350371 0.468556,0.678521 0.9183,1.228933 0.999427,1.22314 0.08113,-0.0058 0.543499,-0.559808 1.027493,-1.231147 0.548712,-0.761104 1.046731,-1.187837 1.322917,-1.133546 0.378918,0.07448 0.442928,0.476817 0.442928,2.784024 0,2.516911 -0.03533,2.696955 -0.529167,2.696955 -0.453506,0 -0.548081,-0.225054 -0.661458,-1.574041 l -0.132292,-1.574045 -0.47798,0.831364 c -0.265814,0.462339 -0.699585,0.831362 -0.977228,0.831362 -0.277643,0 -0.711414,-0.369023 -0.977228,-0.831362 l -0.47798,-0.831364 -0.132292,1.571671 c -0.102521,1.217984 -0.236668,1.591887 -0.596112,1.661518 -0.255102,0.04942 -0.527925,-0.08066 -0.606273,-0.289067 z m 6.349999,0 c -0.07835,-0.208402 -0.107754,-1.463061 -0.06534,-2.788129 0.0705,-2.202938 0.122412,-2.409217 0.6062721,-2.409217 0.41788,0 0.546113,0.207462 0.609751,0.98649 l 0.08058,0.986487 1.001953,-1.096401 c 1.526823,-1.670752 2.328468,-0.779568 0.847479,0.942134 l -0.767524,0.892275 0.767524,0.876808 c 1.491133,1.703447 0.67627,2.604328 -0.847479,0.936941 l -1.001953,-1.096401 -0.08058,0.984243 c -0.0837,1.022336 -0.861851,1.553039 -1.1506791,0.78477 z M 14.550049,29.7388 c -0.07422,-0.197426 -0.100251,-1.443103 -0.05784,-2.768171 l 0.0771,-2.409217 1.026224,-0.08589 c 2.040585,-0.170789 3.339401,0.89076 3.339401,2.729358 0,1.319264 -0.346234,1.972248 -1.31762,2.48498 -0.966602,0.510206 -2.882365,0.540772 -3.067269,0.04894 z m 2.842702,-1.438328 c 0.940485,-0.868763 0.276611,-2.523765 -1.012362,-2.523765 -0.575673,0 -0.620451,0.1072 -0.620451,1.48536 0,1.34437 0.05453,1.48536 0.574479,1.48536 0.315963,0 0.792213,-0.201128 1.058334,-0.446955 z m 3.423393,1.433826 c -1.861055,-1.092377 -1.726107,-4.208509 0.217848,-5.030407 1.731409,-0.732032 3.457196,0.531329 3.457196,2.53084 0,2.126191 -1.997062,3.484485 -3.675044,2.499567 z m 2.132857,-1.433826 c 0.601723,-0.555836 0.620434,-1.381961 0.04597,-2.029886 -0.889569,-1.003331 -2.274096,-0.399691 -2.274096,0.991481 0,1.370229 1.242195,1.949147 2.228126,1.038405 z m 3.49559,1.369691 c -2.122104,-1.068595 -1.824717,-4.316757 0.459171,-5.015206 0.905423,-0.27689 1.202912,-0.265636 1.784395,0.0675 1.153099,0.660629 0.901208,1.203574 -0.512291,1.104225 -1.357474,-0.09541 -1.89874,0.31377 -1.89874,1.435382 0,1.138575 0.557059,1.564128 1.816777,1.387888 1.314011,-0.183839 1.755606,0.37016 0.825249,1.03531 -0.725316,0.518558 -1.423236,0.514299 -2.474561,-0.0151 z m 4.19816,0.02374 c -0.327422,-0.240334 -0.595313,-0.616187 -0.595313,-0.835232 0,-0.526914 0.750017,-0.804039 1.129035,-0.417167 0.371621,0.37932 1.164874,0.398595 1.38583,0.03367 0.09067,-0.149737 -0.374825,-0.508374 -1.034426,-0.796968 -1.313386,-0.574648 -1.747956,-1.426789 -1.230717,-2.413287 0.575731,-1.098051 3.05757,-0.993182 3.05757,0.129194 0,0.434843 -0.162999,0.50441 -1.019175,0.434984 -1.218481,-0.0988 -1.233086,0.446483 -0.02262,0.844705 0.427466,0.140632 0.926042,0.375783 1.107943,0.522564 0.426249,0.343947 0.425754,1.585246 -7.94e-4,2.180773 -0.482531,0.673573 -2.047915,0.852116 -2.777257,0.316763 z M 13.51098,19.665151 C 9.3740689,19.207984 4.4498089,17.809663 3.1922299,16.734981 c -0.745869,-0.637393 -0.765224,-0.700985 -0.320869,-1.054185 0.260085,-0.206729 1.272117,-0.453199 2.248959,-0.547706 0.976842,-0.09451 2.324775,-0.238751 2.995409,-0.320538 l 1.219332,-0.148701 1.5544721,-5.8538401 c 1.425996,-5.370005 1.632453,-5.935691 2.497908,-6.844182 1.692669,-1.77683397 1.895435,-1.74656397 10.306185,1.538562 4.083616,1.595005 7.47808,2.988075 7.543252,3.095707 0.06517,0.107634 -0.352494,1.944668 -0.928143,4.0822961 -0.575646,2.137628 -1.048525,3.96205 -1.05084,4.054272 -0.0024,0.09223 0.935159,0.251318 2.083276,0.353546 1.149448,0.102344 2.308659,0.36125 2.579688,0.57616 0.47058,0.373152 0.457335,0.419857 -0.301546,1.06314 -1.999345,1.694796 -7.393101,2.832417 -14.022917,2.957641 -2.764895,0.05222 -5.503333,0.04232 -6.085416,-0.02201 z m 9.591146,-1.085142 c 0.913392,-0.111985 1.389062,-0.296143 1.389062,-0.537784 0,-0.202115 -0.106135,-0.367481 -0.235855,-0.367481 -0.12972,0 -0.425516,-0.483833 -0.657325,-1.075182 -0.387784,-0.989253 -0.47448,-1.054609 -1.084763,-0.817772 -0.923285,0.358304 -1.463177,0.07255 -1.453054,-0.769079 0.0047,-0.392581 0.415784,-2.171837 0.913471,-3.953899 0.497689,-1.7820631 0.821245,-3.3212521 0.719018,-3.4204231 -0.319511,-0.30996 -6.226656,-2.657265 -6.355699,-2.525547 -0.06735,0.06875 -0.921223,3.075208 -1.897494,6.6810291 l -1.775036,6.556037 0.820139,0.166997 c 1.121056,0.228271 7.907198,0.272796 9.617536,0.0631 z m -11.06546,-7.646748 c 1.379463,-5.1196291 1.770695,-6.9286501 1.531289,-7.0805661 -0.176858,-0.112226 -0.350922,-0.116796 -0.38681,-0.01015 -0.03589,0.106642 -0.898115,3.286339 -1.916062,7.0659921 -1.4015431,5.203949 -1.7710581,6.922703 -1.5222511,7.080567 0.18071,0.114656 0.3538591,0.121213 0.3847751,0.01458 0.03092,-0.106641 0.889992,-3.288325 1.909059,-7.070409 z m 1.464366,0.527794 c 1.537043,-5.7237291 1.903142,-7.6006381 1.364797,-6.9970151 -0.0552,0.06189 -0.92865,3.181146 -1.941007,6.9316811 -1.12971,4.185297 -1.72416,6.819154 -1.539052,6.819154 0.169354,0 1.096848,-2.961401 2.115262,-6.75382 z m 13.660373,2.228186 c 1.113563,-4.1440441 1.279814,-4.9975751 0.897401,-4.6072361 -0.124603,0.127185 -2.509285,8.6755191 -2.509285,8.9949961 0,0.07583 0.0893,0.136958 0.198438,0.135838 0.109141,-0.0011 0.745191,-2.036737 1.413446,-4.523598 z m 1.584339,-0.76476 c 0.714608,-2.636979 1.243102,-4.8518591 1.174427,-4.9219551 -0.06867,-0.0701 -0.186796,0.04186 -0.262493,0.248787 -0.276432,0.755662 -2.520656,9.2047561 -2.520656,9.4898051 0,0.821493 0.42845,-0.461321 1.608722,-4.816637 z m -2.900027,-0.0593 c 0.526709,-1.88509 0.883896,-3.5098901 0.79375,-3.6106681 -0.09015,-0.10078 -0.777192,-0.42847 -1.526765,-0.728199 l -1.36286,-0.544963 -0.855446,3.1587891 c -0.470495,1.737332 -0.919673,3.331796 -0.998178,3.543254 -0.09329,0.251285 -0.01225,0.334287 0.233932,0.23961 1.414655,-0.544052 1.469953,-0.527451 1.963377,0.589437 0.264253,0.598152 0.551127,1.01839 0.637498,0.93386 0.08637,-0.08453 0.587984,-1.696033 1.114692,-3.58112 z m 2.735728,-5.1133771 c 0.660776,-0.407391 1.200603,-0.802362 1.199616,-0.877713 -0.0011,-0.07535 -3.086381,-1.334783 -6.856431,-2.798741 -6.440596,-2.500967 -6.910665,-2.642868 -7.782248,-2.349259 -0.510188,0.171865 -1.07319,0.491525 -1.251117,0.710355 -0.270446,0.332621 -0.15459,0.465897 0.706441,0.812656 1.175295,0.473323 12.642646,5.172439 12.726969,5.215285 0.03045,0.01548 0.595997,-0.30519 1.25677,-0.712583 z"
       id="path955" />
  </g>
</svg>
