<svg xmlns="http://www.w3.org/2000/svg" x="0px" y="0px"
width="64" height="64"
viewBox="0 0 172 172"
style=" fill:#000000;"><defs><linearGradient x1="86" y1="40.08944" x2="86" y2="132.38088" gradientUnits="userSpaceOnUse" id="color-1_55497_gr1"><stop offset="0" stop-color="#8ab4ff"></stop><stop offset="1" stop-color="#b37dfb"></stop></linearGradient><linearGradient x1="86" y1="12.76563" x2="86" y2="162.59375" gradientUnits="userSpaceOnUse" id="color-2_55497_gr2"><stop offset="0" stop-color="#1a6dff"></stop><stop offset="1" stop-color="#7510f7"></stop></linearGradient></defs><g fill="none" fill-rule="nonzero" stroke="none" stroke-width="1" stroke-linecap="butt" stroke-linejoin="miter" stroke-miterlimit="10" stroke-dasharray="" stroke-dashoffset="0" font-family="none" font-weight="none" font-size="none" text-anchor="none" style="mix-blend-mode: normal"><path d="M0,172v-172h172v172z" fill="none"></path><g><path d="M86,131.6875c-25.19263,0 -45.6875,-20.49487 -45.6875,-45.6875c0,-25.19263 20.49488,-45.6875 45.6875,-45.6875c25.19262,0 45.6875,20.49488 45.6875,45.6875c0,25.19262 -20.49487,45.6875 -45.6875,45.6875zM86,45.6875c-22.22831,0 -40.3125,18.08419 -40.3125,40.3125c0,22.22831 18.08419,40.3125 40.3125,40.3125c22.22831,0 40.3125,-18.08419 40.3125,-40.3125c0,-22.22831 -18.08419,-40.3125 -40.3125,-40.3125z" fill="url(#color-1_55497_gr1)"></path><g fill="url(#color-2_55497_gr2)"><path d="M68.81344,69.875h-3.25188c-2.74125,0 -5.03906,2.05594 -5.34812,4.77031l-3.77594,27.47969h5.42069l1.11263,-8.0625h8.44413l1.11262,8.0625h5.40994l-3.78938,-27.47969c-0.29562,-2.71438 -2.59344,-4.77031 -5.33469,-4.77031zM63.70988,88.6875l1.85169,-13.4375h3.25188l1.85438,13.4375zM158.44156,81.75644c-0.28219,-4.39675 -3.51794,-7.96037 -7.85019,-8.65913c-2.45906,-0.41656 -5.39113,-0.89225 -7.80988,-1.28463l-0.56706,-0.09137c-1.51575,-0.24456 -2.74394,-1.30613 -3.2035,-2.77081c-0.88688,-2.83531 -2.04788,-5.6545 -3.45344,-8.39844c-0.70681,-1.3545 -0.59125,-2.96431 0.31713,-4.22206c1.462,-2.06938 3.35669,-4.68969 4.9235,-6.86119c2.58537,-3.58244 2.35425,-8.40112 -0.58588,-11.74438c-1.91887,-2.12581 -3.92912,-4.12262 -5.98237,-5.95012c-3.31369,-2.91325 -8.12163,-3.14437 -11.67719,-0.57244c-2.193,1.56144 -4.82944,3.4615 -6.89613,4.95306c-1.24162,0.90031 -2.86487,1.01588 -4.22475,0.30369c-2.63644,-1.376 -5.45025,-2.55044 -8.37963,-3.49375c-1.45663,-0.45687 -2.51281,-1.677 -2.76006,-3.20887c-0.42731,-2.49938 -0.94331,-5.68944 -1.37063,-8.33125c-0.70681,-4.36181 -4.27581,-7.60562 -8.72094,-7.8905c-2.85681,-0.14513 -5.69212,-0.13706 -8.43875,0.0215c-4.39675,0.28219 -7.96037,3.51794 -8.65913,7.85019c-0.41656,2.45906 -0.89225,5.39113 -1.28463,7.80988l-0.09137,0.56706c-0.24456,1.51575 -1.30612,2.74394 -2.77081,3.2035c-2.83531,0.88687 -5.6545,2.04787 -8.39844,3.45344c-1.3545,0.71219 -2.96163,0.59125 -4.22206,-0.31713c-2.06938,-1.462 -4.68969,-3.35669 -6.86119,-4.9235c-3.58512,-2.58806 -8.40112,-2.35425 -11.74438,0.58588c-2.12581,1.91888 -4.12262,3.92912 -5.95012,5.98238c-2.91056,3.311 -3.14169,8.11894 -0.57244,11.67719c1.56144,2.193 3.4615,4.82944 4.95306,6.89612c0.90031,1.24431 1.01588,2.86487 0.30369,4.22475c-1.376,2.63644 -2.55044,5.45025 -3.49375,8.37962c-0.45688,1.45663 -1.677,2.51281 -3.20887,2.76006c-2.49937,0.42731 -5.68944,0.94331 -8.33394,1.37063c-4.36181,0.70681 -7.60563,4.27581 -7.8905,8.72094c-0.14513,2.8595 -0.13975,5.69213 0.0215,8.43875c0.28219,4.39675 3.51794,7.96037 7.85019,8.65913c2.45906,0.41656 5.39112,0.89225 7.80988,1.28463l0.56706,0.09137c1.51575,0.24456 2.74394,1.30612 3.2035,2.77081c0.88688,2.83531 2.04788,5.6545 3.45344,8.39844c0.70681,1.3545 0.59125,2.96431 -0.31712,4.22206c-1.462,2.06938 -3.35669,4.68969 -4.9235,6.86119c-2.58537,3.58244 -2.35425,8.40113 0.58587,11.74437c1.91888,2.12581 3.92913,4.12262 5.98238,5.95013c3.311,2.90787 8.11894,3.139 11.67719,0.57244c2.193,-1.56144 4.82944,-3.4615 6.89612,-4.95306c1.24431,-0.90031 2.86219,-1.01587 4.22475,-0.30369c2.63644,1.376 5.45025,2.55044 8.37962,3.49375c1.45663,0.45687 2.51281,1.677 2.76006,3.20888c0.42731,2.49938 0.94331,5.68944 1.37063,8.33394c0.70681,4.36181 4.27581,7.60563 8.72094,7.8905c1.35719,0.06988 2.70631,0.10481 4.04738,0.10481c1.4835,0 2.94819,-0.043 4.39137,-0.129c4.39675,-0.28219 7.96038,-3.51794 8.65913,-7.85019c0.41656,-2.45906 0.89225,-5.39113 1.28463,-7.80988l0.09137,-0.56706c0.24456,-1.51575 1.30612,-2.74394 2.77081,-3.2035c2.83531,-0.88688 5.6545,-2.04788 8.39844,-3.45344c1.35719,-0.7095 2.96431,-0.58856 4.22206,0.31713c2.06938,1.462 4.68969,3.35669 6.86119,4.9235c3.58513,2.58537 8.39844,2.35156 11.74437,-0.58588c2.12581,-1.91887 4.12262,-3.92912 5.95013,-5.98237c2.91056,-3.311 3.14169,-8.11894 0.57244,-11.67719c-1.56144,-2.193 -3.4615,-4.82944 -4.95306,-6.89613c-0.90031,-1.24431 -1.01587,-2.86488 -0.30369,-4.22475c1.376,-2.63644 2.55044,-5.45025 3.49375,-8.37963c0.45688,-1.45663 1.677,-2.51281 3.20888,-2.76006c2.49938,-0.42731 5.68944,-0.94331 8.33394,-1.37063c4.36181,-0.70681 7.60562,-4.27581 7.8905,-8.72094c0.14513,-2.8595 0.13975,-5.69212 -0.0215,-8.43875zM153.09881,89.89688c-0.12094,1.88662 -1.51306,3.4185 -3.38088,3.7195c-2.65794,0.42731 -5.8695,0.946 -8.35812,1.37331c-3.52869,0.57244 -6.38281,3.04494 -7.44706,6.43656c-0.84387,2.623 -1.90006,5.15194 -3.13631,7.51694c-1.66088,3.17663 -1.38944,6.95525 0.70681,9.86044c1.48619,2.05594 3.37819,4.68162 4.94231,6.88c1.10456,1.52381 1.00512,3.57975 -0.22844,4.98262c-1.68775,1.89738 -3.5475,3.76519 -5.50131,5.53087c-1.419,1.24969 -3.483,1.34644 -5.02025,0.24188c-2.18494,-1.57756 -4.82137,-3.48031 -6.88269,-4.93694c-2.89981,-2.09088 -6.67038,-2.36231 -9.82013,-0.71756c-2.45369,1.25775 -4.988,2.3005 -7.53306,3.096c-3.42119,1.07231 -5.89906,3.93719 -6.4715,7.47125l-0.09137,0.56706c-0.38969,2.40531 -0.86269,5.32663 -1.27925,7.79106c-0.301,1.85975 -1.82481,3.24381 -3.68725,3.36206c-2.537,0.14781 -5.17075,0.15588 -7.80181,0.0215c-1.88662,-0.12094 -3.4185,-1.51306 -3.7195,-3.38088c-0.42731,-2.65794 -0.946,-5.8695 -1.37331,-8.35812c-0.57244,-3.52869 -3.04494,-6.38281 -6.43656,-7.44706c-2.623,-0.84387 -5.15194,-1.90006 -7.51694,-3.13631c-1.38406,-0.72025 -2.87831,-1.07769 -4.36719,-1.07769c-1.93231,0 -3.85388,0.59931 -5.49325,1.7845c-2.05594,1.48619 -4.68162,3.37819 -6.88,4.94231c-1.52381,1.10725 -3.57975,1.00244 -4.98262,-0.22844c-1.89737,-1.68775 -3.76519,-3.5475 -5.53087,-5.50131c-1.24969,-1.419 -1.34913,-3.48569 -0.24188,-5.02025c1.57756,-2.18494 3.48031,-4.82137 4.93694,-6.88269c2.09356,-2.89981 2.365,-6.67038 0.71756,-9.82013c-1.25775,-2.45369 -2.3005,-4.988 -3.096,-7.53306c-1.07231,-3.42119 -3.93719,-5.89906 -7.47125,-6.4715l-0.56706,-0.09137c-2.40531,-0.38969 -5.32662,-0.86269 -7.79106,-1.27925c-1.85975,-0.301 -3.24381,-1.82481 -3.36206,-3.68725c-0.14781,-2.537 -0.15319,-5.17344 -0.0215,-7.80181c0.12094,-1.88662 1.51306,-3.4185 3.38087,-3.7195c2.65794,-0.42731 5.8695,-0.946 8.35812,-1.37331c3.52869,-0.57244 6.38281,-3.04494 7.44706,-6.43656c0.84388,-2.623 1.90006,-5.15194 3.13631,-7.51694c1.66087,-3.17662 1.38944,-6.95525 -0.70681,-9.86044c-1.48619,-2.05594 -3.37819,-4.68162 -4.94231,-6.88c-1.10456,-1.52381 -1.00512,-3.57975 0.22844,-4.98262c1.68775,-1.89737 3.5475,-3.76519 5.50131,-5.53087c1.42169,-1.24969 3.483,-1.34913 5.02025,-0.24188c2.18494,1.57756 4.82138,3.48031 6.88269,4.93694c2.89712,2.09356 6.67037,2.365 9.82012,0.71756c2.45369,-1.25775 4.988,-2.3005 7.53306,-3.096c3.42119,-1.07231 5.89906,-3.93719 6.4715,-7.47125l0.09137,-0.56706c0.38969,-2.40531 0.86269,-5.32662 1.27925,-7.79106c0.301,-1.85975 1.82481,-3.24381 3.68725,-3.36206c2.53431,-0.14781 5.17075,-0.15319 7.80181,-0.0215c1.88662,0.12094 3.4185,1.51306 3.7195,3.38087c0.42731,2.65794 0.946,5.8695 1.37331,8.35812c0.57244,3.52869 3.04494,6.38281 6.43656,7.44706c2.623,0.84387 5.15194,1.90006 7.51694,3.13631c3.17394,1.65819 6.95256,1.38675 9.86044,-0.70681c2.05594,-1.48619 4.68162,-3.37819 6.88,-4.94231c1.5265,-1.10456 3.58244,-1.00244 4.98262,0.22844c1.89738,1.68775 3.76519,3.5475 5.53087,5.50131c1.24969,1.419 1.34913,3.48569 0.24188,5.02025c-1.57756,2.18494 -3.48031,4.82138 -4.93694,6.88269c-2.09356,2.89981 -2.365,6.67038 -0.71756,9.82013c1.25775,2.45369 2.3005,4.988 3.096,7.53306c1.07231,3.42119 3.93719,5.89906 7.47125,6.4715l0.56706,0.09137c2.40531,0.38969 5.32663,0.86269 7.79106,1.27925c1.85975,0.301 3.24381,1.82481 3.36206,3.68725c0.14781,2.537 0.15319,5.17344 0.0215,7.80181zM96.75,69.875h-13.4375v32.25h5.375v-10.75h8.0625c4.44781,0 8.0625,-3.61469 8.0625,-8.0625v-5.375c0,-4.44781 -3.61469,-8.0625 -8.0625,-8.0625zM99.4375,83.3125c0,1.47813 -1.20938,2.6875 -2.6875,2.6875h-8.0625v-10.75h8.0625c1.47812,0 2.6875,1.20937 2.6875,2.6875zM110.1875,102.125h5.375v-32.25h-5.375z"></path></g></g></g></svg>