<?xml version="1.0" encoding="UTF-8" standalone="no"?>
<!-- Created with Inkscape (http://www.inkscape.org/) -->

<svg
   width="95.658134mm"
   height="64.499199mm"
   viewBox="0 0 95.658135 64.499198"
   version="1.1"
   id="svg5"
   inkscape:version="1.1 (c4e8f9ed74, 2021-05-24)"
   sodipodi:docname="rESTRUCTUREADTEXT.svg"
   xmlns:inkscape="http://www.inkscape.org/namespaces/inkscape"
   xmlns:sodipodi="http://sodipodi.sourceforge.net/DTD/sodipodi-0.dtd"
   xmlns="http://www.w3.org/2000/svg"
   xmlns:svg="http://www.w3.org/2000/svg">
  <sodipodi:namedview
     id="namedview7"
     pagecolor="#ffffff"
     bordercolor="#666666"
     borderopacity="1.0"
     inkscape:pageshadow="2"
     inkscape:pageopacity="0.0"
     inkscape:pagecheckerboard="0"
     inkscape:document-units="mm"
     showgrid="false"
     inkscape:zoom="0.50511364"
     inkscape:cx="210.84364"
     inkscape:cy="331.60855"
     inkscape:window-width="1366"
     inkscape:window-height="742"
     inkscape:window-x="0"
     inkscape:window-y="0"
     inkscape:window-maximized="1"
     inkscape:current-layer="layer1" />
  <defs
     id="defs2">
    <clipPath
       clipPathUnits="userSpaceOnUse"
       id="clipPath1123">
      <path
         style="fill:none;stroke:#000000;stroke-width:0.264583px;stroke-linecap:butt;stroke-linejoin:miter;stroke-opacity:1"
         d="m 63.171644,116.52227 c 95.406906,-0.0475 92.961426,-0.47102 95.406906,-0.0475 2.44548,0.42357 -0.44994,-66.86034 0.0217,-0.74386 0.47169,66.11649 0.60202,68.71872 0.47169,62.89012 -0.13035,-5.82859 -0.49371,1.87597 -0.49371,1.87597 l -95.882413,-0.77388 z"
         id="path1125" />
    </clipPath>
    <clipPath
       clipPathUnits="userSpaceOnUse"
       id="clipPath1361">
      <path
         style="fill:none;stroke:#000000;stroke-width:0.264583px;stroke-linecap:butt;stroke-linejoin:miter;stroke-opacity:1"
         d="m 63.061545,116.4422 c 95.521575,-0.52447 95.521575,-0.52447 95.521575,-0.52447 l -0.11499,64.4992 -95.882412,-0.77388 z"
         id="path1363" />
    </clipPath>
    <clipPath
       clipPathUnits="userSpaceOnUse"
       id="clipPath1365">
      <path
         style="fill:none;stroke:#000000;stroke-width:0.264583px;stroke-linecap:butt;stroke-linejoin:miter;stroke-opacity:1"
         d="m 63.171644,116.52227 c 95.521576,-0.52447 95.521576,-0.52447 95.521576,-0.52447 l -0.11499,64.4992 -95.882413,-0.77388 z"
         id="path1367" />
    </clipPath>
  </defs>
  <g
     inkscape:label="Layer 1"
     inkscape:groupmode="layer"
     id="layer1"
     transform="translate(-63.283665,-96.680805)">
    <g
       id="g1575"
       transform="translate(-0.79877251,0.278528)">
      <path
         style="fill:#d0d0d0;fill-opacity:1;stroke-width:0.435718"
         d="M 64.028348,128.83092 V 96.945991 h 47.224552 47.22456 v 31.884929 31.88493 H 111.2529 64.028348 Z m 55.510832,17.60244 c 3.09316,-1.17193 4.77059,-2.67411 5.99363,-5.36742 0.9712,-2.13873 1.11417,-2.94215 0.96694,-5.43347 -0.31021,-5.24892 -2.98215,-7.60147 -11.16347,-9.82909 -7.10107,-1.93348 -8.44381,-2.93441 -7.84923,-5.85111 0.43782,-2.14767 2.36573,-3.18955 5.54537,-2.99683 3.0882,0.18718 4.70196,1.24627 5.41053,3.55088 l 0.47367,1.54058 3.43152,0.13174 3.43151,0.13175 -0.29091,-1.71469 c -0.45922,-2.70671 -0.96722,-3.86637 -2.40297,-5.48553 -4.64069,-5.23351 -15.08304,-5.4195 -19.77914,-0.3523 -4.394606,4.74188 -3.361479,11.91888 2.12785,14.78192 1.06029,0.55301 3.84213,1.56526 6.18187,2.24945 7.0623,2.06515 8.24192,2.86588 8.24192,5.59458 0,2.94444 -3.26362,4.74264 -7.60271,4.18896 -3.36222,-0.42903 -5.83005,-2.64546 -5.83005,-5.23614 0,-0.88327 -0.22873,-0.94782 -3.3582,-0.94782 h -3.358186 v 1.66628 c 0,4.73177 4.204446,8.9742 10.020266,10.1108 2.5408,0.49656 7.55378,0.12222 9.80979,-0.73254 z m -37.880331,-4.71278 v -4.97496 h 3.587158 c 3.200995,0 3.69288,0.11391 4.569235,1.0581 0.934753,1.00711 1.102651,1.66855 1.711774,6.74353 l 0.257847,2.14828 h 2.521209 c 2.278413,0 2.497038,-0.0821 2.27021,-0.85205 -0.138051,-0.46863 -0.424365,-2.48976 -0.636254,-4.49139 -0.41672,-3.9366 -0.902127,-5.14708 -2.413445,-6.01852 l -0.974997,-0.5622 1.244986,-0.84929 c 2.498131,-1.70414 3.235154,-6.67925 1.385005,-9.34916 -1.963039,-2.83281 -2.426042,-2.96624 -10.823532,-3.11933 l -7.736482,-0.14104 v 12.69149 12.69149 h 2.518643 2.518643 z m 0,-12.70718 v -3.66181 l 4.025406,0.15673 c 3.692754,0.14377 4.095159,0.24958 4.869465,1.2804 0.64643,0.86058 0.791586,1.54518 0.61995,2.92388 -0.320226,2.57228 -1.05899,2.96261 -5.607201,2.96261 h -3.90762 z m 58.768341,7.27995 v -10.40217 h 3.56807 3.56808 v -2.26135 -2.26134 h -9.6548 -9.6548 v 2.26134 2.26135 h 3.56808 3.56808 v 10.40217 10.40218 h 2.51864 2.51865 z"
         id="path1591" />
      <path
         style="fill:#b9b9b9;fill-opacity:1;stroke-width:0.435718"
         d="M 64.028348,128.83092 V 96.945991 h 47.224552 47.22456 v 31.884929 31.88493 H 111.2529 64.028348 Z m 53.543862,18.17622 c 5.31561,-1.20076 8.56053,-4.52638 8.91542,-9.13711 0.27116,-3.5229 -0.15491,-5.26043 -1.79669,-7.32695 -1.79427,-2.25847 -3.74872,-3.24165 -9.66007,-4.85947 -2.53963,-0.69504 -5.14517,-1.55303 -5.79009,-1.90663 -2.62856,-1.44123 -2.3914,-4.82955 0.43932,-6.2768 1.10209,-0.56346 2.11163,-0.69767 3.81948,-0.50775 2.75316,0.30614 4.29384,1.4013 4.94337,3.51389 l 0.47367,1.54057 3.40924,0.13136 c 3.84493,0.14815 3.77558,0.23125 2.79021,-3.34371 -0.76926,-2.79091 -2.66116,-4.94147 -5.67758,-6.45382 -1.98567,-0.99556 -2.90024,-1.1597 -6.53551,-1.17291 -3.88713,-0.0141 -4.42535,0.094 -6.69835,1.34614 -6.887639,3.79413 -7.64892,12.49916 -1.4503,16.58385 1.03458,0.68176 4.01868,1.86108 6.63134,2.62072 5.20296,1.51277 7.8076,2.74172 8.21094,3.87416 1.38249,3.8816 -2.53933,6.75538 -8.01229,5.87113 -2.40971,-0.38933 -5.15881,-3.0171 -5.15881,-4.93111 v -1.18388 h -3.59637 c -3.22203,0 -3.575389,0.0824 -3.394845,0.79147 0.110836,0.43531 0.31684,1.53064 0.457785,2.43408 0.98626,6.32174 9.325,10.28014 17.68013,8.39277 z m -35.913361,-5.28656 v -4.97496 h 3.474675 c 2.438979,0 3.747897,0.20619 4.391312,0.69174 1.008856,0.76133 1.779692,3.18713 1.792202,5.64002 0.01704,3.34056 0.248145,3.61815 3.012272,3.61815 2.307715,0 2.477658,-0.069 2.231263,-0.90537 -0.14669,-0.49796 -0.415491,-2.49548 -0.597335,-4.43893 -0.349354,-3.73372 -1.193559,-5.72446 -2.636844,-6.218 -0.806876,-0.27591 -0.792979,-0.33155 0.270555,-1.08323 2.644517,-1.86907 3.436716,-5.44919 1.941935,-8.77602 -1.534328,-3.41485 -3.004646,-3.90549 -11.703812,-3.90549 h -7.213509 v 12.66352 12.66352 h 2.518643 2.518643 z m 0,-12.66352 v -3.61815 l 3.463134,0.007 c 1.907297,0.004 3.919708,0.25765 4.47942,0.56533 1.828825,1.00534 2.177505,4.28934 0.632195,5.95427 -0.505642,0.5448 -1.580124,0.71005 -4.616882,0.71005 h -3.957867 z m 58.768341,7.23629 v -10.40217 h 3.56807 3.56808 v -2.26135 -2.26134 h -9.6548 -9.6548 v 2.26134 2.26135 h 3.56808 3.56808 v 10.40217 10.40218 h 2.51864 2.51865 z"
         id="path1589" />
      <path
         style="fill:#a3a3a3;fill-opacity:1;stroke-width:0.435718"
         d="M 64.028348,128.83092 V 96.945991 h 47.224552 47.22456 v 31.884929 31.88493 H 111.2529 64.028348 Z m 57.058062,16.87122 c 3.81436,-2.06507 5.1931,-4.23605 5.41839,-8.53188 0.20513,-3.9112 -0.31336,-5.34221 -2.78485,-7.68611 -1.93843,-1.83835 -3.16529,-2.34679 -10.98201,-4.55118 -5.27205,-1.48677 -6.62088,-3.38196 -4.41614,-6.20497 2.66244,-3.40907 10.27715,-1.64597 10.27715,2.37957 0,1.16196 0.0108,1.16546 3.60497,1.16546 h 3.60498 l -0.2871,-1.92214 c -0.1579,-1.05718 -0.73018,-2.7522 -1.27172,-3.76672 -3.36717,-6.30796 -14.86642,-7.53072 -20.71778,-2.20302 -3.755878,3.41976 -3.953517,10.1272 -0.40089,13.6054 1.76269,1.72577 2.88192,2.18984 11.7666,4.87889 3.00908,0.91073 4.96026,2.60678 4.96026,4.31166 0,2.65652 -2.62191,4.53475 -6.33891,4.54095 -3.40016,0.006 -6.45485,-2.12277 -6.92546,-4.82551 l -0.26183,-1.50372 h -3.54038 -3.540383 l 0.282107,1.696 c 0.670636,4.03182 2.514856,6.77777 5.731546,8.53397 2.89526,1.58071 4.96472,1.97169 9.31495,1.75988 3.20787,-0.15619 4.14372,-0.39733 6.5065,-1.67653 z m -39.427561,-4.02656 v -5.01996 l 3.815318,0.15807 c 4.569843,0.18933 5.21056,0.73652 5.626902,4.80554 0.547602,5.35185 0.372313,5.0763 3.229259,5.0763 1.994327,0 2.482516,-0.13388 2.305051,-0.63215 -0.123832,-0.34768 -0.356517,-2.12849 -0.517077,-3.95735 -0.361805,-4.12114 -1.085636,-6.10721 -2.474236,-6.78887 l -1.071395,-0.52595 1.28473,-0.84177 c 3.643742,-2.38743 3.124714,-9.48364 -0.853585,-11.67032 -1.474013,-0.8102 -2.468718,-0.91063 -9.019488,-0.91063 h -7.362765 v 12.66352 12.66352 h 2.518643 2.518643 z m 0.08729,-12.50546 0.122601,-3.50508 2.72853,-0.1439 c 4.966536,-0.26193 7.225662,1.27594 6.497069,4.4228 -0.550976,2.37972 -1.262803,2.73127 -5.530352,2.73127 h -3.940449 z m 58.681051,7.12323 v -10.40217 h 3.56807 3.56808 v -2.26135 -2.26134 h -9.6548 -9.6548 v 2.26134 2.26135 h 3.56808 3.56808 v 10.40217 10.40218 h 2.51864 2.51865 z"
         id="path1587" />
      <path
         style="fill:#8c8c8c;fill-opacity:1;stroke-width:0.435718"
         d="M 64.028348,128.83092 V 96.945991 h 47.224552 47.22456 v 31.884929 31.88493 H 111.2529 64.028348 Z m 55.853432,17.66741 c 4.25326,-1.6292 6.77682,-5.40889 6.77682,-10.15006 0,-3.13291 -0.68505,-4.73618 -2.97687,-6.96699 -1.71022,-1.66468 -3.15104,-2.25146 -10.8701,-4.42689 -4.16006,-1.17241 -5.26673,-2.00689 -5.26673,-3.97137 0,-3.05846 3.4115,-4.80612 7.22313,-3.70031 2.12647,0.61693 3.34847,1.82601 3.68662,3.64765 l 0.24924,1.34267 h 3.56926 3.56925 l -0.28522,-1.92214 c -0.38889,-2.62073 -2.06932,-5.56066 -3.93808,-6.88969 -5.35148,-3.80591 -14.86923,-3.0069 -18.7075,1.57049 -2.75647,3.28726 -3.161091,8.3753 -0.91802,11.54377 1.916,2.70645 3.72122,3.58862 12.90443,6.30607 4.41846,1.3075 6.08706,4.0078 4.1316,6.6862 -0.80948,1.10875 -3.51095,2.15563 -5.54889,2.15032 -3.24621,-0.008 -6.33569,-2.17772 -6.92498,-4.86235 l -0.37162,-1.69302 h -3.34244 -3.342443 l 0.117127,1.96589 c 0.271356,4.5545 3.495646,8.2647 8.493816,9.77386 2.85259,0.86132 9.02084,0.64957 11.7716,-0.4041 z m -38.013044,-4.66412 v -4.86245 h 3.710846 c 4.577258,0 5.107263,0.4887 5.525159,5.09453 0.433668,4.77966 0.329563,4.62924 3.203898,4.62924 2.196736,0 2.492515,-0.10116 2.314214,-0.79147 -0.112436,-0.43531 -0.332817,-2.21612 -0.489734,-3.95735 -0.338628,-3.75759 -1.064205,-5.84484 -2.274369,-6.54264 -0.864974,-0.49875 -0.852856,-0.54163 0.558391,-1.97563 3.166047,-3.21712 2.310197,-9.33456 -1.584515,-11.32579 -1.155863,-0.59095 -2.877031,-0.73416 -8.823517,-0.73416 h -7.387546 v 12.66352 12.66352 l 2.623586,4.5e-4 2.623587,4.5e-4 v -4.86245 z m -0.122601,-12.66409 0.122601,-3.50508 2.610543,-0.13428 c 3.931707,-0.20224 5.831275,0.49133 6.396136,2.33537 0.490663,1.60181 0.281793,2.7357 -0.740068,4.01761 -0.517581,0.64929 -1.338753,0.79147 -4.571364,0.79147 h -3.940449 z m 58.890935,7.23651 v -10.28932 l 3.46314,-0.13136 3.46313,-0.13135 v -2.24305 -2.24306 h -9.6548 -9.6548 v 2.26134 2.26135 h 3.56808 3.56808 v 10.40217 10.40218 l 2.62359,2.1e-4 2.62358,2e-4 z"
         id="path1585" />
      <path
         style="fill:#767676;fill-opacity:1;stroke-width:0.435718"
         d="M 64.028348,128.83092 V 96.945991 h 47.224552 47.22456 v 31.884929 31.88493 H 111.2529 64.028348 Z m 55.051092,17.87801 c 4.97661,-1.66236 7.63679,-5.21058 7.63924,-10.18944 0.002,-2.97737 -0.64764,-4.7158 -2.51003,-6.72236 -1.71909,-1.85216 -3.08111,-2.49329 -8.76255,-4.12471 -7.22002,-2.07322 -7.55139,-2.28006 -7.55139,-4.71348 0,-1.59061 0.20845,-2.14799 1.05928,-2.83239 1.43298,-1.1527 3.63796,-1.47515 5.79935,-0.8481 2.14038,0.62096 3.36251,1.82678 3.70131,3.65191 l 0.24924,1.34267 h 3.51561 3.5156 v -1.27571 c 0,-0.70164 -0.51947,-2.38068 -1.15438,-3.73121 -2.08659,-4.43844 -6.65642,-6.63536 -12.89671,-6.20002 -6.65051,0.46396 -11.10102,4.61843 -11.12612,10.38603 -0.0243,5.58697 2.55563,7.96359 11.51159,10.60436 2.75788,0.81319 5.4969,1.86555 6.08672,2.33857 2.33412,1.87188 2.10875,4.78762 -0.48355,6.25606 -1.86324,1.05545 -6.35894,1.05534 -8.22235,-2e-4 -1.55996,-0.88366 -3.02087,-3.16211 -3.02323,-4.71505 -0.002,-1.00647 -0.0999,-1.03216 -3.4647,-0.90453 l -3.463133,0.13135 0.117127,1.96589 c 0.193829,3.25327 2.031586,6.24472 5.135626,8.35962 3.10519,2.11567 9.91205,2.69564 14.32745,1.22074 z m -37.000817,-4.98835 v -4.97496 l 2.833473,0.006 c 1.558411,0.004 3.26606,0.13103 3.794776,0.28362 1.281047,0.36973 2.039202,2.07272 2.388011,5.36403 0.469541,4.4305 0.36881,4.29606 3.218822,4.29606 h 2.523709 l -0.221157,-1.24374 c -0.121637,-0.68405 -0.347591,-2.56662 -0.502121,-4.18348 -0.315081,-3.29671 -1.043695,-5.16556 -2.295269,-5.88723 -0.809365,-0.46669 -0.784623,-0.54745 0.598274,-1.95264 2.210041,-2.24569 2.581349,-6.68584 0.776864,-9.28985 -1.690326,-2.43927 -3.017773,-2.7701 -11.114907,-2.7701 h -7.457535 v 12.66352 12.66352 h 2.72853 2.72853 z m -7.14e-4,-12.55046 -7.13e-4,-3.50508 4.004813,0.22614 c 4.510628,0.25469 4.7952,0.46074 4.805431,3.47944 0.0092,2.71578 -0.941219,3.30459 -5.334142,3.30459 h -3.474675 z m 58.769051,7.12323 v -10.40217 h 3.31768 3.31767 l 0.14546,-2.26163 0.14546,-2.26162 -9.75974,2.8e-4 -9.75975,2.8e-4 v 2.26134 2.26135 h 3.56808 3.56808 v 10.40217 10.40218 h 2.72853 2.72853 z"
         id="path1583" />
      <path
         style="fill:#606060;fill-opacity:1;stroke-width:0.435718"
         d="M 64.028348,128.83092 V 96.945991 h 47.224552 47.22456 v 31.884929 31.88493 H 111.2529 64.028348 Z m 55.504482,17.89662 c 6.05103,-2.01431 9.09047,-9.55141 6.07821,-15.07255 -1.56783,-2.87367 -4.25181,-4.47046 -10.1206,-6.02109 -2.56152,-0.67679 -5.37609,-1.61795 -6.2546,-2.09148 -1.50446,-0.81091 -1.58986,-0.96876 -1.46921,-2.71596 0.17549,-2.54163 1.65418,-3.72221 4.66209,-3.72221 1.21211,0 2.82183,0.2758 3.57717,0.61288 1.3431,0.5994 2.59306,2.45768 2.59306,3.85504 0,0.578 0.62548,0.70086 3.56807,0.70086 4.01359,0 4.08226,-0.0812 3.08894,-3.6533 -1.24261,-4.46852 -5.27673,-7.17834 -11.23093,-7.54412 -4.66373,-0.28649 -7.65808,0.61894 -10.28461,3.10987 -2.29219,2.17386 -3.19175,4.18979 -3.19175,7.15282 0,4.93696 2.45013,7.80439 8.319,9.7359 8.84312,2.91036 9.45458,3.17206 10.29324,4.40554 1.14285,1.68086 0.56607,3.84133 -1.34687,5.04503 -1.82439,1.14798 -6.39898,1.20793 -8.37015,0.10969 -1.54416,-0.86033 -3.01444,-3.14134 -3.01682,-4.68031 -0.002,-0.9766 -0.14762,-1.0176 -3.6267,-1.0176 h -3.625135 l 0.259906,2.043 c 0.624249,4.90693 3.692849,8.44632 8.669459,9.99954 2.20495,0.68818 9.05845,0.53732 11.42823,-0.25155 z m -37.454207,-5.00696 v -4.97496 h 2.66589 c 4.920851,0 5.839709,0.82371 6.355415,5.69734 0.466517,4.40876 0.341457,4.25257 3.405079,4.25257 2.449532,0 2.678139,-0.0774 2.337916,-0.79147 -0.207403,-0.43531 -0.500067,-2.28267 -0.650365,-4.10524 -0.290301,-3.52032 -1.04898,-5.63266 -2.333472,-6.49693 -0.751671,-0.50577 -0.741465,-0.56713 0.231479,-1.39169 2.33211,-1.97644 3.018689,-6.44732 1.423088,-9.26689 -1.6889,-2.98445 -2.672977,-3.27124 -11.231218,-3.27313 l -7.660872,-0.002 v 12.66352 12.66352 h 2.72853 2.72853 z m 0,-12.43739 v -3.39201 h 3.712904 c 4.361757,0 5.102346,0.5102 5.102346,3.51505 0,2.67643 -0.968043,3.26898 -5.340575,3.26898 h -3.474675 z m 58.768337,7.01016 v -10.40217 h 3.56808 3.56807 v -2.26135 -2.26134 h -9.86468 -9.86469 v 2.26134 2.26135 h 3.56808 3.56808 v 10.40217 10.40218 h 2.72853 2.72853 z"
         id="path1581" />
      <path
         style="fill:#494949;fill-opacity:1;stroke-width:0.435718"
         d="M 64.028348,128.83092 V 97.39826 h 47.224552 47.22456 v 31.43266 31.43267 H 111.2529 64.028348 Z m 56.580342,17.4203 c 4.571,-2.13874 7.12079,-7.23915 6.00522,-12.01244 -1.04959,-4.49095 -3.76645,-6.61704 -10.95338,-8.57157 -2.42419,-0.65928 -5.21044,-1.57947 -6.19166,-2.04486 -1.65979,-0.78726 -1.78404,-0.96907 -1.78404,-2.6106 0,-2.97833 2.75384,-4.51375 6.67871,-3.72374 2.09134,0.42095 4.23541,2.4902 4.23541,4.08762 0,0.8257 0.28945,0.8974 3.62267,0.8974 h 3.62266 l -0.21825,-2.08627 c -0.57561,-5.50212 -5.69473,-9.22044 -12.69403,-9.22044 -4.09429,0 -6.80589,0.95664 -9.23117,3.25671 -2.43523,2.30951 -3.15216,4.01988 -3.15216,7.52009 0,2.1316 0.22084,3.01564 1.10335,4.41676 1.93349,3.0697 3.51836,3.97374 10.60686,6.05033 5.19438,1.52169 6.94106,2.54526 7.35173,4.30817 0.36429,1.56377 -0.69541,3.59451 -2.23402,4.28116 -1.77371,0.79157 -5.83179,0.72872 -7.68864,-0.11908 -1.67838,-0.76631 -3.2583,-3.05625 -3.26088,-4.72631 -0.002,-0.97535 -0.14973,-1.0176 -3.56964,-1.0176 h -3.56808 v 1.19126 c 0,4.7863 4.00568,9.61925 9.12356,11.0078 0.86937,0.23587 3.46965,0.36704 5.77841,0.29151 3.25312,-0.10645 4.69722,-0.37106 6.41737,-1.1759 z m -38.530067,-4.53064 v -4.97496 h 2.66589 c 3.065779,0 5.106878,0.6351 5.552305,1.72761 0.170392,0.41793 0.518744,2.38804 0.774115,4.37802 l 0.464311,3.61815 2.774093,0.13241 2.774092,0.13242 -0.342369,-1.71536 c -0.188303,-0.94344 -0.532261,-3.14 -0.764349,-4.88123 -0.347921,-2.61026 -0.63581,-3.37247 -1.640354,-4.34297 -1.155694,-1.11652 -1.177713,-1.20443 -0.428011,-1.70888 2.465172,-1.65869 3.261418,-6.75173 1.49667,-9.57315 -1.875824,-2.99901 -3.009638,-3.35191 -11.332467,-3.52728 l -7.450986,-0.157 v 12.93359 12.93358 h 2.72853 2.72853 z m 0,-12.43739 v -3.39201 h 3.712904 c 4.361757,0 5.102346,0.5102 5.102346,3.51505 0,2.67643 -0.968043,3.26898 -5.340575,3.26898 h -3.474675 z m 58.768337,7.01016 v -10.40217 h 3.59001 3.59002 l -0.12688,-2.37441 -0.12688,-2.37441 -9.75974,-0.1214 -9.75975,-0.12141 v 2.49582 2.49581 h 3.56808 3.56808 v 10.40217 10.40218 h 2.72853 2.72853 z"
         id="path1579" />
      <path
         style="fill:#7510F6;fill-opacity:1;stroke-width:0.435718"
         d="M 64.028348,128.83092 V 97.39826 h 47.224552 47.22456 v 31.43266 31.43267 H 111.2529 64.028348 Z m 56.580342,17.43684 c 6.45636,-3.06899 8.39711,-11.42547 3.80304,-16.37517 -2.03508,-2.19262 -3.03128,-2.66528 -9.39516,-4.45771 -6.81917,-1.92065 -7.31378,-2.24644 -7.32532,-4.82503 -0.0102,-2.28594 1.55567,-3.31177 5.05526,-3.31177 2.43528,0 3.0329,0.16617 4.11027,1.14289 0.69337,0.6286 1.38402,1.74796 1.53477,2.48748 l 0.2741,1.34458 h 3.53473 3.53472 v -1.37133 c 0,-3.28015 -2.16406,-6.51932 -5.66695,-8.4823 -1.74964,-0.98048 -2.79732,-1.20619 -6.2966,-1.35653 -3.52369,-0.15138 -4.57661,-0.0267 -6.55721,0.77672 -2.64534,1.07302 -5.21535,3.4987 -6.08626,5.74445 -0.92059,2.37383 -0.74305,6.42806 0.36723,8.38587 1.76427,3.11103 3.39469,4.05631 10.83288,6.28068 2.61304,0.78142 5.2046,1.741 5.75904,2.1324 1.4726,1.03958 1.88218,2.55737 1.17924,4.36995 -0.75763,1.95365 -2.69623,2.67282 -6.56927,2.43703 -3.6018,-0.21927 -4.97364,-1.18882 -5.85192,-4.13586 l -0.62966,-2.11281 -3.46314,-0.002 -3.46313,-0.002 v 1.24672 c 0,4.6847 3.03902,8.65732 8.11063,10.60224 3.18309,1.22069 10.12383,0.94863 13.20871,-0.51775 z m -38.620766,-4.49134 0.119188,-5.14524 3.369276,0.21014 c 4.386506,0.27359 4.915864,0.80769 5.567651,5.61749 0.265208,1.95707 0.63441,3.81272 0.820449,4.12365 0.209282,0.34978 1.306262,0.56534 2.877035,0.56534 2.25215,0 2.504961,-0.0894 2.239232,-0.79147 -0.164752,-0.43531 -0.480725,-2.5214 -0.702163,-4.63575 -0.40592,-3.87585 -0.998476,-5.46255 -2.389542,-6.39853 -0.6974,-0.46925 -0.639611,-0.62678 0.72373,-1.97291 1.346062,-1.32906 1.496751,-1.7269 1.646675,-4.34738 0.140509,-2.45592 0.01903,-3.11598 -0.817666,-4.44293 -1.925715,-3.05407 -3.023793,-3.3985 -11.36924,-3.56617 l -7.450986,-0.14969 v 13.17399 13.174 l 2.623586,-0.13465 2.623587,-0.13465 z m 0.0907,-12.49323 v -3.39201 h 3.712904 c 4.282546,0 5.102346,0.53255 5.102346,3.31456 0,2.78545 -1.034493,3.46947 -5.247173,3.46947 h -3.568077 z m 58.671226,7.36752 0.11278,-10.27096 3.4553,-0.13122 3.4553,-0.13122 v -2.48748 -2.48747 l -9.75974,-0.1214 -9.75975,-0.12141 v 2.75518 2.75518 l 3.56906,-0.1463 3.56906,-0.1463 -8.4e-4,10.53683 -8.4e-4,10.53682 2.62359,-0.13465 2.62358,-0.13465 0.11278,-10.27095 z"
         id="path1577" />
    </g>
    <path
       style="fill:none;stroke:#000000;stroke-width:0.264583px;stroke-linecap:butt;stroke-linejoin:miter;stroke-opacity:1"
       d="m 63.703038,96.136886 c 95.247412,1.254362 94.525702,0.91938 94.525702,0.91938 l 0.35438,18.861464 -95.521575,0.52447 z"
       id="path1240"
       clip-path="url(#clipPath1361)"
       transform="translate(0.16803049,-18.765412)" />
  </g>
</svg>
