<?xml version="1.0" encoding="UTF-8"?>
<svg xmlns="http://www.w3.org/2000/svg" xmlns:xlink="http://www.w3.org/1999/xlink" viewBox="0 0 32 32" width="32px" height="32px">
<g id="surface5289446">
<path style=" stroke:none;fill-rule:nonzero;fill:rgb(45.882353%,6.27451%,96.862745%);fill-opacity:1;" d="M 27.535156 17.792969 C 26.414062 17.796875 25.449219 18.066406 24.636719 18.464844 C 24.339844 17.875 24.039062 17.351562 23.988281 16.964844 C 23.929688 16.511719 23.859375 16.242188 23.933594 15.703125 C 24.003906 15.164062 24.316406 14.402344 24.308594 14.34375 C 24.304688 14.289062 24.238281 14.011719 23.59375 14.007812 C 22.949219 14.003906 22.398438 14.132812 22.335938 14.304688 C 22.269531 14.472656 22.144531 14.855469 22.066406 15.257812 C 21.953125 15.839844 20.78125 17.925781 20.113281 19.015625 C 19.894531 18.589844 19.710938 18.214844 19.671875 17.917969 C 19.613281 17.46875 19.546875 17.195312 19.617188 16.65625 C 19.6875 16.117188 20 15.355469 19.992188 15.300781 C 19.988281 15.242188 19.925781 14.96875 19.277344 14.964844 C 18.632812 14.957031 18.082031 15.085938 18.019531 15.257812 C 17.953125 15.425781 17.882812 15.824219 17.753906 16.210938 C 17.621094 16.59375 16.058594 20.074219 15.648438 20.976562 C 15.441406 21.433594 15.261719 21.804688 15.132812 22.054688 C 15.132812 22.054688 15.121094 22.070312 15.109375 22.097656 C 15 22.3125 14.933594 22.433594 14.933594 22.433594 C 14.933594 22.433594 14.9375 22.433594 14.9375 22.4375 C 14.851562 22.59375 14.757812 22.738281 14.710938 22.738281 C 14.679688 22.738281 14.613281 22.320312 14.726562 21.746094 C 14.957031 20.539062 15.515625 18.65625 15.511719 18.59375 C 15.507812 18.558594 15.613281 18.230469 15.144531 18.058594 C 14.691406 17.890625 14.527344 18.171875 14.488281 18.171875 C 14.445312 18.171875 14.417969 18.269531 14.417969 18.269531 C 14.417969 18.269531 14.925781 16.152344 13.449219 16.152344 C 12.527344 16.152344 11.253906 17.160156 10.621094 18.074219 C 10.226562 18.292969 9.378906 18.753906 8.476562 19.25 C 8.128906 19.441406 7.777344 19.632812 7.441406 19.820312 C 7.417969 19.792969 7.394531 19.769531 7.371094 19.742188 C 5.585938 17.835938 2.28125 16.488281 2.421875 13.925781 C 2.472656 12.992188 2.796875 10.539062 8.769531 7.5625 C 13.660156 5.125 17.578125 5.796875 18.257812 7.28125 C 19.222656 9.40625 16.160156 13.355469 11.082031 13.925781 C 9.144531 14.140625 8.125 13.390625 7.871094 13.113281 C 7.605469 12.816406 7.566406 12.804688 7.464844 12.859375 C 7.304688 12.949219 7.40625 13.210938 7.464844 13.363281 C 7.617188 13.757812 8.238281 14.460938 9.300781 14.808594 C 10.234375 15.113281 12.507812 15.28125 15.257812 14.21875 C 18.335938 13.027344 20.742188 9.714844 20.035156 6.945312 C 19.316406 4.128906 14.648438 3.203125 10.226562 4.773438 C 7.597656 5.707031 4.75 7.175781 2.703125 9.089844 C 0.269531 11.367188 -0.121094 13.347656 0.0390625 14.175781 C 0.605469 17.117188 4.664062 19.035156 6.285156 20.453125 C 6.207031 20.5 6.132812 20.539062 6.0625 20.578125 C 5.25 20.980469 2.15625 22.597656 1.382812 24.308594 C 0.507812 26.246094 1.523438 27.636719 2.195312 27.824219 C 4.28125 28.40625 6.421875 27.359375 7.574219 25.644531 C 8.722656 23.929688 8.582031 21.699219 8.054688 20.679688 C 8.046875 20.664062 8.039062 20.652344 8.035156 20.640625 C 8.242188 20.515625 8.460938 20.390625 8.671875 20.265625 C 9.085938 20.019531 9.492188 19.792969 9.84375 19.601562 C 9.648438 20.144531 9.503906 20.792969 9.429688 21.730469 C 9.339844 22.828125 9.789062 24.253906 10.382812 24.8125 C 10.640625 25.058594 10.953125 25.0625 11.152344 25.0625 C 11.839844 25.0625 12.152344 24.492188 12.496094 23.816406 C 12.921875 22.988281 13.296875 22.023438 13.296875 22.023438 C 13.296875 22.023438 12.824219 24.628906 14.109375 24.628906 C 14.578125 24.628906 15.046875 24.023438 15.257812 23.714844 C 15.257812 23.714844 15.257812 23.71875 15.257812 23.71875 C 15.257812 23.71875 15.269531 23.699219 15.292969 23.65625 C 15.34375 23.582031 15.371094 23.535156 15.371094 23.535156 C 15.371094 23.535156 15.371094 23.53125 15.371094 23.523438 C 15.558594 23.195312 15.976562 22.449219 16.601562 21.222656 C 17.410156 19.636719 18.1875 17.648438 18.1875 17.648438 C 18.1875 17.648438 18.257812 18.136719 18.492188 18.9375 C 18.632812 19.410156 18.929688 19.933594 19.160156 20.433594 C 18.972656 20.695312 18.859375 20.84375 18.859375 20.84375 C 18.859375 20.84375 18.859375 20.847656 18.859375 20.851562 C 18.710938 21.050781 18.542969 21.265625 18.367188 21.476562 C 17.730469 22.234375 16.96875 23.101562 16.867188 23.355469 C 16.746094 23.648438 16.777344 23.867188 17.007812 24.039062 C 17.175781 24.167969 17.476562 24.1875 17.792969 24.167969 C 18.367188 24.128906 18.769531 23.984375 18.96875 23.898438 C 19.277344 23.789062 19.640625 23.617188 19.980469 23.367188 C 20.605469 22.910156 20.984375 22.25 20.945312 21.378906 C 20.925781 20.898438 20.773438 20.421875 20.578125 19.972656 C 20.636719 19.890625 20.695312 19.808594 20.75 19.726562 C 21.738281 18.285156 22.503906 16.699219 22.503906 16.699219 C 22.503906 16.699219 22.574219 17.183594 22.8125 17.988281 C 22.929688 18.394531 23.164062 18.839844 23.378906 19.273438 C 22.449219 20.027344 21.875 20.902344 21.675781 21.476562 C 21.304688 22.539062 21.59375 23.019531 22.136719 23.132812 C 22.382812 23.179688 22.730469 23.066406 22.992188 22.957031 C 23.316406 22.851562 23.707031 22.671875 24.070312 22.402344 C 24.695312 21.941406 25.296875 21.300781 25.261719 20.425781 C 25.246094 20.03125 25.136719 19.636719 24.992188 19.257812 C 25.777344 18.929688 26.796875 18.746094 28.09375 18.898438 C 30.875 19.226562 31.421875 20.960938 31.316406 21.6875 C 31.210938 22.414062 30.628906 22.816406 30.433594 22.9375 C 30.238281 23.058594 30.179688 23.097656 30.195312 23.1875 C 30.21875 23.316406 30.308594 23.3125 30.476562 23.285156 C 30.703125 23.246094 31.9375 22.695312 31.988281 21.351562 C 32.058594 19.648438 30.425781 17.777344 27.535156 17.792969 Z M 6.09375 25.019531 C 5.171875 26.027344 3.882812 26.40625 3.332031 26.085938 C 2.734375 25.738281 2.972656 24.261719 4.101562 23.195312 C 4.792969 22.542969 5.683594 21.945312 6.273438 21.574219 C 6.40625 21.496094 6.605469 21.375 6.84375 21.234375 C 6.882812 21.210938 6.90625 21.199219 6.90625 21.199219 L 6.902344 21.195312 C 6.949219 21.167969 6.996094 21.140625 7.046875 21.113281 C 7.460938 22.628906 7.058594 23.964844 6.09375 25.019531 Z M 12.804688 20.457031 C 12.484375 21.238281 11.8125 23.242188 11.402344 23.132812 C 11.054688 23.042969 10.839844 21.519531 11.335938 20.023438 C 11.582031 19.269531 12.113281 18.367188 12.425781 18.019531 C 12.929688 17.457031 13.484375 17.273438 13.617188 17.5 C 13.789062 17.789062 13.007812 19.96875 12.804688 20.457031 Z M 18.351562 23.101562 C 18.214844 23.175781 18.089844 23.21875 18.03125 23.183594 C 17.988281 23.160156 18.089844 23.066406 18.089844 23.066406 C 18.089844 23.066406 18.78125 22.320312 19.054688 21.980469 C 19.214844 21.78125 19.398438 21.546875 19.597656 21.285156 C 19.601562 21.308594 19.601562 21.335938 19.601562 21.363281 C 19.597656 22.257812 18.734375 22.859375 18.351562 23.101562 Z M 22.621094 22.128906 C 22.523438 22.058594 22.539062 21.824219 22.871094 21.097656 C 23.003906 20.8125 23.300781 20.332031 23.820312 19.871094 C 23.882812 20.0625 23.917969 20.242188 23.917969 20.410156 C 23.910156 21.535156 23.109375 21.953125 22.621094 22.128906 Z M 22.621094 22.128906 "/>
</g>
</svg>
