<?xml version="1.0" encoding="UTF-8" standalone="no"?>
<!-- Created with Inkscape (http://www.inkscape.org/) -->

<svg
   width="104.99358mm"
   height="89.077652mm"
   viewBox="0 0 104.99358 89.07765"
   version="1.1"
   id="svg5"
   inkscape:version="1.1 (c4e8f9ed74, 2021-05-24)"
   sodipodi:docname="sPHINX.svg"
   xmlns:inkscape="http://www.inkscape.org/namespaces/inkscape"
   xmlns:sodipodi="http://sodipodi.sourceforge.net/DTD/sodipodi-0.dtd"
   xmlns="http://www.w3.org/2000/svg"
   xmlns:svg="http://www.w3.org/2000/svg">
  <sodipodi:namedview
     id="namedview7"
     pagecolor="#ffffff"
     bordercolor="#666666"
     borderopacity="1.0"
     inkscape:pageshadow="2"
     inkscape:pageopacity="0.0"
     inkscape:pagecheckerboard="0"
     inkscape:document-units="mm"
     showgrid="false"
     inkscape:zoom="0.50511364"
     inkscape:cx="63.352081"
     inkscape:cy="246.47919"
     inkscape:window-width="1366"
     inkscape:window-height="742"
     inkscape:window-x="0"
     inkscape:window-y="0"
     inkscape:window-maximized="1"
     inkscape:current-layer="layer1" />
  <defs
     id="defs2" />
  <g
     inkscape:label="Layer 1"
     inkscape:groupmode="layer"
     id="layer1"
     transform="translate(-52.297969,-83.460693)">
    <g
       id="g836"
       transform="matrix(1,0,0,1.2459469,-7.3143431,-47.610716)">
      <path
         style="fill:#d0d0d0;fill-opacity:1;stroke-width:0.409712"
         d="m 78.844682,174.38363 c 0.298306,-0.11734 0.654723,-0.10291 0.792039,0.032 0.137315,0.13498 -0.106754,0.23099 -0.542375,0.21335 -0.481398,-0.0195 -0.579317,-0.11574 -0.249664,-0.24542 z m 0.826475,-6.90567 c 0.298306,-0.11734 0.654723,-0.10291 0.792039,0.032 0.137315,0.13499 -0.106753,0.23099 -0.542374,0.21336 -0.481399,-0.0195 -0.579318,-0.11575 -0.249665,-0.24542 z m 4.958851,0 c 0.298306,-0.11734 0.654724,-0.10291 0.792039,0.032 0.137315,0.13499 -0.106753,0.23099 -0.542374,0.21336 -0.481398,-0.0195 -0.579318,-0.11575 -0.249665,-0.24542 z m 49.318002,-16.37735 c 0,-0.55855 0.0938,-0.78704 0.20843,-0.50777 0.11464,0.27927 0.11464,0.73627 0,1.01554 -0.11463,0.27927 -0.20843,0.0508 -0.20843,-0.50777 z m -19.5859,-5.56811 c 0.51403,-0.0972 1.25786,-0.0935 1.65295,0.008 0.39509,0.10167 -0.0255,0.18117 -0.93461,0.17666 -0.90912,-0.005 -1.23237,-0.0877 -0.71834,-0.18486 z m -41.940574,-0.80663 c 0.402067,-0.10299 0.959938,-0.0962 1.239713,0.0151 0.279775,0.11128 -0.04919,0.19554 -0.73103,0.18726 -0.681842,-0.008 -0.91075,-0.0993 -0.508683,-0.20231 z m 37.415964,-7.71409 c 0.29831,-0.11734 0.65472,-0.10291 0.79204,0.0321 0.13732,0.13498 -0.10675,0.23099 -0.54237,0.21335 -0.4814,-0.0195 -0.57932,-0.11575 -0.24967,-0.24542 z m 12.094,-10.52107 c 0.0198,-0.47322 0.11775,-0.56948 0.24966,-0.24543 0.11937,0.29324 0.1047,0.6436 -0.0326,0.77859 -0.13732,0.13498 -0.23499,-0.10495 -0.21704,-0.53316 z"
         id="path850" />
      <path
         style="fill:#b9b9b9;fill-opacity:1;stroke-width:0.409712"
         d="m 78.431444,167.47796 c 0.298306,-0.11734 0.654724,-0.10291 0.792039,0.032 0.137315,0.13499 -0.106753,0.23099 -0.542374,0.21336 -0.481399,-0.0195 -0.579318,-0.11575 -0.249665,-0.24542 z"
         id="path848" />
      <path
         style="fill:#a3a3a3;fill-opacity:1;stroke-width:0.409712"
         d="m 81.305681,174.36672 c 0.742732,-0.0904 1.858474,-0.0885 2.479425,0.004 0.620952,0.0927 0.01326,0.16666 -1.350422,0.16438 -1.363685,-0.002 -1.871736,-0.0781 -1.129003,-0.16853 z m 61.700939,-28.78387 c 0.0198,-0.47322 0.11775,-0.56948 0.24966,-0.24543 0.11937,0.29324 0.10469,0.6436 -0.0326,0.77859 -0.13732,0.13498 -0.23499,-0.10495 -0.21705,-0.53316 z M 62.982428,134.31206 c -0.115922,-0.29695 -0.155008,-2.17062 -0.08686,-4.16371 l 0.123911,-3.62379 0.203136,4.16459 c 0.201488,4.13082 0.166151,4.66382 -0.24019,3.62291 z m 90.425812,-9.48927 c 0.39774,-0.10217 1.04859,-0.10217 1.44633,0 0.39775,0.10217 0.0723,0.18577 -0.72316,0.18577 -0.79548,0 -1.12091,-0.0836 -0.72317,-0.18577 z m -90.532876,-4.87526 c -0.03821,-2.27686 0.07,-4.22508 0.240461,-4.32938 0.170461,-0.1043 0.259112,1.11879 0.197004,2.71798 -0.202934,5.22519 -0.366702,5.82843 -0.437465,1.6114 z"
         id="path846" />
      <path
         style="fill:#8c8c8c;fill-opacity:1;stroke-width:0.409712"
         d="m 65.731184,158.98797 c 0.01983,-0.47323 0.117749,-0.56948 0.249665,-0.24543 0.119372,0.29324 0.104691,0.6436 -0.03263,0.77858 -0.137316,0.13499 -0.234984,-0.10494 -0.217041,-0.53315 z m 68.184206,-5.28081 c 0.0198,-0.47322 0.11775,-0.56947 0.24966,-0.24542 0.11937,0.29323 0.1047,0.64359 -0.0326,0.77858 -0.13732,0.13498 -0.23499,-0.10494 -0.21704,-0.53316 z M 80.607738,152.0823 c 0.01983,-0.47322 0.117748,-0.56948 0.249665,-0.24543 0.119372,0.29324 0.104691,0.6436 -0.03263,0.77859 -0.137316,0.13498 -0.234984,-0.10495 -0.217041,-0.53316 z m 48.936032,-4.63763 c 0.41137,-0.44684 0.84093,-0.81243 0.95457,-0.81243 0.11364,0 -0.12996,0.36559 -0.54133,0.81243 -0.41138,0.44683 -0.84093,0.81243 -0.95457,0.81243 -0.11364,0 0.12996,-0.3656 0.54133,-0.81243 z m -19.29303,-2.30857 c 0.2983,-0.11734 0.65472,-0.10292 0.79204,0.032 0.13731,0.13498 -0.10676,0.23099 -0.54237,0.21335 -0.48141,-0.0195 -0.57932,-0.11575 -0.24967,-0.24542 z m 8.67799,0 c 0.2983,-0.11734 0.65472,-0.10292 0.79204,0.032 0.13731,0.13498 -0.10676,0.23099 -0.54237,0.21335 -0.48141,-0.0195 -0.57932,-0.11575 -0.24967,-0.24542 z m 33.05901,-20.31079 c 0.2983,-0.11734 0.65472,-0.10291 0.79204,0.032 0.13731,0.13499 -0.10676,0.23099 -0.54238,0.21336 -0.4814,-0.0195 -0.57931,-0.11575 -0.24966,-0.24542 z m 3.71914,0 c 0.2983,-0.11734 0.65472,-0.10291 0.79204,0.032 0.13731,0.13499 -0.10676,0.23099 -0.54238,0.21336 -0.4814,-0.0195 -0.57932,-0.11575 -0.24966,-0.24542 z m -1.8854,-2.43982 c 0.39774,-0.10217 1.04859,-0.10217 1.44633,0 0.39774,0.10218 0.0723,0.18578 -0.72316,0.18578 -0.79549,0 -1.12091,-0.0836 -0.72317,-0.18578 z"
         id="path844" />
      <path
         style="fill:#606060;fill-opacity:1;stroke-width:0.409712"
         d="m 68.125276,164.20107 c -0.514015,-0.64429 -0.499399,-0.65865 0.156019,-0.15338 0.397742,0.30664 0.723166,0.62653 0.723166,0.71088 0,0.33433 -0.339345,0.11915 -0.879185,-0.5575 z m 38.431094,-31.68483 c -0.51401,-0.64428 -0.4994,-0.65865 0.15602,-0.15337 0.68835,0.53067 0.90726,0.86425 0.56715,0.86425 -0.0858,0 -0.41124,-0.3199 -0.72317,-0.71088 z"
         id="path842" />
      <path
         style="fill:#494949;fill-opacity:1;stroke-width:0.409712"
         d="m 106.94484,144.72988 c 0.2983,-0.11734 0.65472,-0.10291 0.79204,0.032 0.13731,0.13499 -0.10676,0.23099 -0.54238,0.21336 -0.4814,-0.0195 -0.57931,-0.11575 -0.24966,-0.24542 z"
         id="path840" />
      <path
         style="fill:#333333;fill-opacity:1;stroke-width:0.409712"
         d="m 129.75039,170.75415 v -5.93806 l 1.21971,-1.36557 c 2.11993,-2.37344 3.03463,-6.28179 3.31815,-14.17788 0.13638,-3.79812 0.22777,-6.94856 0.20308,-7.00098 -0.0247,-0.0524 -0.77607,0.75338 -1.66974,1.79067 -4.41414,5.12347 -13.70629,13.66552 -19.18747,17.63856 -11.75329,8.51941 -20.030253,11.94784 -29.986882,12.42099 -11.338386,0.53881 -19.518685,-2.8042 -22.586575,-9.23037 -1.323486,-2.77224 -1.817283,-7.16623 -1.156805,-10.29367 0.589307,-2.79044 2.562568,-5.76578 4.761608,-7.17967 1.93162,-1.24196 5.962556,-2.4108 8.314035,-2.4108 2.515239,0 5.796336,1.7815 6.783162,3.68297 2.778018,5.35283 -2.148964,11.76055 -6.759487,8.79096 -1.121465,-0.72233 -2.345764,-3.01837 -2.345764,-4.39922 0,-0.95927 -0.295087,-0.95445 -1.940426,0.0317 -2.047545,1.22725 -2.7488,2.59884 -2.781089,5.43956 -0.02426,2.13438 0.153804,2.76505 1.218943,4.31723 2.337603,3.4065 6.88985,4.88485 15.041741,4.88485 7.093908,0 11.730067,-1.43481 20.073509,-6.2124 1.59096,-0.91101 3.13961,-1.89788 3.44143,-2.19302 0.30182,-0.29516 0.93727,-0.74103 1.4121,-0.99083 0.76132,-0.40052 3.04015,-2.15076 6.02875,-4.63033 0.53053,-0.44016 1.36733,-1.1319 1.85957,-1.53719 1.77509,-1.46156 7.30017,-6.84772 7.30017,-7.11663 0,-0.15134 -1.68276,-0.10402 -3.73946,0.10515 -5.36958,0.54609 -17.03806,-0.69737 -24.450855,-2.60562 -1.655017,-0.42605 -4.031885,-1.03868 -5.281929,-1.3614 -1.250043,-0.32271 -3.451032,-0.97926 -4.891085,-1.45899 -2.453736,-0.81741 -9.089222,-2.59223 -14.737701,-3.94195 -1.363684,-0.32585 -3.269742,-0.79037 -4.235685,-1.03226 l -1.75626,-0.4398 v -3.7628 c 0,-4.1034 0.09163,-4.25593 2.556884,-4.25593 0.687267,0 2.299181,-0.24897 3.582031,-0.55328 1.282851,-0.3043 4.192025,-0.97329 6.464832,-1.48665 2.272807,-0.51336 6.92173,-1.73928 10.33094,-2.72427 17.643908,-5.09768 26.606668,-6.20934 35.331818,-4.38225 8.77243,1.837 14.73396,3.41269 25.00087,6.608 2.54831,0.79309 4.25289,1.03893 7.43828,1.07278 2.27281,0.0241 4.71893,-0.0851 5.43583,-0.24281 1.25423,-0.2759 1.34166,-0.20686 2.31514,1.82797 2.70694,5.65826 2.67506,5.35746 0.61235,5.77762 -5.24062,1.06748 -13.83194,5.70974 -17.02229,9.19788 -2.18446,2.38836 -2.6331,4.03277 -1.69951,6.2292 0.66972,1.57562 3.32168,4.21967 4.26322,4.25049 0.95653,0.0313 0.52663,0.7388 -0.61985,1.02008 -1.70017,0.41712 -3.69701,1.74486 -4.69388,3.12106 -0.48743,0.67289 -1.21892,2.62507 -1.62555,4.33818 -1.29258,5.44566 -2.10001,7.28772 -4.48127,10.22351 -1.72072,2.12144 -5.84604,6.09324 -6.32874,6.09324 -0.18142,0 -0.32985,-2.67212 -0.32985,-5.93805 z m -7.10472,-33.88267 c 1.06659,-0.22979 2.86903,-0.61157 4.00544,-0.8484 5.33057,-1.1109 15.14079,-4.97453 14.371,-5.65983 -0.17651,-0.15713 -1.44443,-0.6604 -2.8176,-1.11837 -1.37317,-0.45797 -2.9538,-1.01918 -3.51252,-1.24713 -0.81929,-0.33426 -7.60619,-2.48406 -12.2723,-3.88734 -0.88184,-0.2652 -0.91418,-0.19565 -0.68547,1.47412 0.36118,2.63698 -1.07142,6.05229 -3.17729,7.57465 -2.4255,1.75342 -4.98728,2.35921 -7.3499,1.73805 -4.54461,-1.19484 -7.8488,-5.95732 -6.80366,-9.80641 l 0.42564,-1.56757 -1.27946,0.20468 c -2.46706,0.39467 -5.072573,1.04692 -13.883208,3.47545 -11.428262,3.15004 -10.968077,2.96425 -8.67799,3.50344 1.022763,0.24081 4.091052,1.09582 6.81842,1.90003 7.606473,2.2429 10.453937,2.94614 14.050078,3.46992 1.81825,0.26483 3.95675,0.62709 4.75223,0.80503 2.14392,0.47955 13.79762,0.47205 16.03659,-0.0103 z M 63.219135,119.88706 v -3.9971 l 2.995972,-0.49372 c 5.552592,-0.91502 12.795611,-2.68494 22.624759,-5.52862 9.43619,-2.72999 19.578474,-4.66939 24.419094,-4.66939 3.27407,0 14.87863,2.0956 19.38409,3.50046 1.02277,0.31891 3.44021,1.02396 5.37209,1.56678 1.93189,0.54282 5.37209,1.54093 7.6449,2.21803 3.47733,1.03594 4.82017,1.23067 8.47137,1.22848 2.38645,-10e-4 5.0155,-0.15717 5.84234,-0.34608 1.46751,-0.3353 1.52345,-0.3036 2.34723,1.32989 1.40338,2.78282 2.54775,5.89577 2.2321,6.07185 -1.29523,0.72252 -5.5986,1.28115 -9.80182,1.2724 -4.42981,-0.009 -5.42176,-0.15248 -9.29784,-1.34287 -4.50207,-1.38262 -5.7556,-1.7537 -8.36806,-2.47713 -0.85231,-0.23602 -2.154,-0.60779 -2.89267,-0.82617 -0.73866,-0.21838 -3.5745,-0.94505 -6.30187,-1.61482 -2.72737,-0.66977 -5.79566,-1.43077 -6.81842,-1.6911 -1.02276,-0.26034 -4.09693,-0.55979 -6.83148,-0.66546 -4.44521,-0.17176 -5.63789,-0.0553 -11.25863,1.09973 -3.457694,0.71051 -9.681374,2.26674 -13.830399,3.45828 -4.149026,1.19154 -9.310273,2.5593 -11.46944,3.03947 -2.159166,0.48016 -4.596602,1.04638 -5.416524,1.25825 -1.406931,0.36356 -8.068407,1.58231 -8.736864,1.59845 -0.170461,0.004 -0.309928,-1.79121 -0.309928,-3.98961 z"
         id="path838" />
    </g>
  </g>
</svg>
